<svg xmlns="http://www.w3.org/2000/svg" xmlns:xlink="http://www.w3.org/1999/xlink" width="500" zoomAndPan="magnify" viewBox="0 0 375 374.999991" height="500" preserveAspectRatio="xMidYMid meet" version="1.0"><defs><g/></defs><rect x="-37.5" width="450" fill="#ffffff" y="-37.499999" height="449.999989" fill-opacity="1"/><rect x="-37.5" width="450" fill="#ffffff" y="-37.499999" height="449.999989" fill-opacity="1"/><rect x="-37.5" width="450" fill="#ffffff" y="-37.499999" height="449.999989" fill-opacity="1"/><g fill="#000000" fill-opacity="1"><g transform="translate(65.616432, 307.276705)"><g><path d="M 113.738281 0 C 99.25 -15.9375 85.484375 -40.207031 77.515625 -66.289062 L 131.488281 -66.289062 C 143.441406 -30.789062 172.421875 2.535156 212.265625 2.535156 C 230.738281 2.535156 253.921875 -4.347656 268.410156 -24.632812 L 262.253906 -31.152344 C 250.660156 -18.835938 232.1875 -20.285156 223.132812 -40.933594 C 208.644531 -74.617188 201.035156 -117.722656 185.460938 -164.089844 C 172.058594 -204.660156 134.75 -247.402344 61.578125 -247.402344 L 61.578125 -237.984375 C 77.878906 -237.984375 84.398438 -222.40625 93.816406 -191.980469 C 84.398438 -180.390625 74.257812 -167.347656 66.289062 -155.035156 C 42.019531 -118.085938 6.519531 -52.160156 6.519531 0 Z M 128.589844 -74.980469 L 75.34375 -74.980469 C 67.375 -105.769531 67.738281 -138.734375 84.035156 -163.363281 C 88.382812 -169.882812 92.730469 -175.679688 97.078125 -181.839844 C 107.582031 -147.789062 117.722656 -108.304688 128.589844 -74.980469 Z M 128.589844 -74.980469 "/></g></g></g></svg>